<svg id="SvgjsSvg1006" width="828" height="555.4296875" xmlns="http://www.w3.org/2000/svg" version="1.1" xmlns:xlink="http://www.w3.org/1999/xlink" xmlns:svgjs="http://svgjs.com/svgjs"><defs id="SvgjsDefs1007"><marker id="SvgjsMarker1066" markerWidth="12" markerHeight="8" refX="9" refY="4" viewBox="0 0 12 8" orient="auto" markerUnits="userSpaceOnUse" stroke-dasharray="0,0"><path id="SvgjsPath1067" d="M0,0 L12,4 L0,8 L0,0" fill="#323232" stroke="#323232" stroke-width="1"></path></marker><marker id="SvgjsMarker1070" markerWidth="12" markerHeight="8" refX="3" refY="4" viewBox="0 0 12 8" orient="auto" markerUnits="userSpaceOnUse" stroke-dasharray="0,0"><path id="SvgjsPath1071" d="M12,0 L0,4 L12,8 L12,0" fill="#323232" stroke="#323232" stroke-width="1"></path></marker><marker id="SvgjsMarker1072" markerWidth="12" markerHeight="8" refX="9" refY="4" viewBox="0 0 12 8" orient="auto" markerUnits="userSpaceOnUse" stroke-dasharray="0,0"><path id="SvgjsPath1073" d="M0,0 L12,4 L0,8 L0,0" fill="#323232" stroke="#323232" stroke-width="1"></path></marker><marker id="SvgjsMarker1076" markerWidth="12" markerHeight="8" refX="9" refY="4" viewBox="0 0 12 8" orient="auto" markerUnits="userSpaceOnUse" stroke-dasharray="0,0"><path id="SvgjsPath1077" d="M0,0 L12,4 L0,8 L0,0" fill="#323232" stroke="#323232" stroke-width="1"></path></marker><marker id="SvgjsMarker1086" markerWidth="12" markerHeight="8" refX="9" refY="4" viewBox="0 0 12 8" orient="auto" markerUnits="userSpaceOnUse" stroke-dasharray="0,0"><path id="SvgjsPath1087" d="M0,0 L12,4 L0,8 L0,0" fill="#323232" stroke="#323232" stroke-width="1"></path></marker><marker id="SvgjsMarker1094" markerWidth="12" markerHeight="8" refX="9" refY="4" viewBox="0 0 12 8" orient="auto" markerUnits="userSpaceOnUse" stroke-dasharray="0,0"><path id="SvgjsPath1095" d="M0,0 L12,4 L0,8 L0,0" fill="#323232" stroke="#323232" stroke-width="1"></path></marker><marker id="SvgjsMarker1104" markerWidth="12" markerHeight="8" refX="9" refY="4" viewBox="0 0 12 8" orient="auto" markerUnits="userSpaceOnUse" stroke-dasharray="0,0"><path id="SvgjsPath1105" d="M0,0 L12,4 L0,8 L0,0" fill="#323232" stroke="#323232" stroke-width="1"></path></marker><marker id="SvgjsMarker1118" markerWidth="12" markerHeight="8" refX="9" refY="4" viewBox="0 0 12 8" orient="auto" markerUnits="userSpaceOnUse" stroke-dasharray="0,0"><path id="SvgjsPath1119" d="M0,0 L12,4 L0,8 L0,0" fill="#323232" stroke="#323232" stroke-width="1"></path></marker><marker id="SvgjsMarker1138" markerWidth="12" markerHeight="8" refX="9" refY="4" viewBox="0 0 12 8" orient="auto" markerUnits="userSpaceOnUse" stroke-dasharray="0,0"><path id="SvgjsPath1139" d="M0,0 L12,4 L0,8 L0,0" fill="#323232" stroke="#323232" stroke-width="1"></path></marker><marker id="SvgjsMarker1142" markerWidth="12" markerHeight="8" refX="9" refY="4" viewBox="0 0 12 8" orient="auto" markerUnits="userSpaceOnUse" stroke-dasharray="0,0"><path id="SvgjsPath1143" d="M0,0 L12,4 L0,8 L0,0" fill="#323232" stroke="#323232" stroke-width="1"></path></marker><marker id="SvgjsMarker1162" markerWidth="12" markerHeight="8" refX="9" refY="4" viewBox="0 0 12 8" orient="auto" markerUnits="userSpaceOnUse" stroke-dasharray="0,0"><path id="SvgjsPath1163" d="M0,0 L12,4 L0,8 L0,0" fill="#323232" stroke="#323232" stroke-width="1"></path></marker><marker id="SvgjsMarker1174" markerWidth="12" markerHeight="8" refX="9" refY="4" viewBox="0 0 12 8" orient="auto" markerUnits="userSpaceOnUse" stroke-dasharray="0,0"><path id="SvgjsPath1175" d="M0,0 L12,4 L0,8 L0,0" fill="#323232" stroke="#323232" stroke-width="1"></path></marker><marker id="SvgjsMarker1190" markerWidth="12" markerHeight="8" refX="9" refY="4" viewBox="0 0 12 8" orient="auto" markerUnits="userSpaceOnUse" stroke-dasharray="0,0"><path id="SvgjsPath1191" d="M0,0 L12,4 L0,8 L0,0" fill="#323232" stroke="#323232" stroke-width="1"></path></marker><marker id="SvgjsMarker1194" markerWidth="12" markerHeight="8" refX="9" refY="4" viewBox="0 0 12 8" orient="auto" markerUnits="userSpaceOnUse" stroke-dasharray="0,0"><path id="SvgjsPath1195" d="M0,0 L12,4 L0,8 L0,0" fill="#323232" stroke="#323232" stroke-width="1"></path></marker><marker id="SvgjsMarker1198" markerWidth="12" markerHeight="8" refX="9" refY="4" viewBox="0 0 12 8" orient="auto" markerUnits="userSpaceOnUse" stroke-dasharray="0,0"><path id="SvgjsPath1199" d="M0,0 L12,4 L0,8 L0,0" fill="#323232" stroke="#323232" stroke-width="1"></path></marker><marker id="SvgjsMarker1218" markerWidth="12" markerHeight="8" refX="9" refY="4" viewBox="0 0 12 8" orient="auto" markerUnits="userSpaceOnUse" stroke-dasharray="0,0"><path id="SvgjsPath1219" d="M0,0 L12,4 L0,8 L0,0" fill="#323232" stroke="#323232" stroke-width="1"></path></marker></defs><g id="SvgjsG1008" transform="translate(25,41)"><path id="SvgjsPath1009" d="M 0 4Q 0 0 4 0L 122 0Q 126 0 126 4L 126 84Q 126 88 122 88L 4 88Q 0 88 0 84Z" stroke="rgba(50,50,50,1)" stroke-width="1" fill-opacity="1" fill="#ffffff"></path><g id="SvgjsG1010"><text id="SvgjsText1011" font-family="微软雅黑" text-anchor="middle" font-size="13px" width="106px" fill="#323232" font-weight="700" align="middle" lineHeight="125%" anchor="middle" family="微软雅黑" size="13px" weight="700" font-style="" opacity="1" y="8.875" transform="rotate(0)"><tspan id="SvgjsTspan1012" dy="16" x="63"><tspan id="SvgjsTspan1013" style="text-decoration:;">平台下发指令</tspan></tspan><tspan id="SvgjsTspan1014" dy="16" x="63"><tspan id="SvgjsTspan1015" style="text-decoration:;">DeviceOperator</tspan></tspan><tspan id="SvgjsTspan1016" dy="16" x="63"><tspan id="SvgjsTspan1017" style="text-decoration:;">.messageSend()</tspan></tspan><tspan id="SvgjsTspan1018" dy="16" x="63"><tspan id="SvgjsTspan1019" style="text-decoration:;">.send(...)</tspan></tspan></text></g></g><g id="SvgjsG1020" transform="translate(26,220.5)"><path id="SvgjsPath1021" d="M 0 4Q 0 0 4 0L 120 0Q 124 0 124 4L 124 84Q 124 88 120 88L 4 88Q 0 88 0 84Z" stroke="rgba(50,50,50,1)" stroke-width="1" fill-opacity="1" fill="#ffffff"></path><g id="SvgjsG1022"><text id="SvgjsText1023" font-family="微软雅黑" text-anchor="middle" font-size="13px" width="104px" fill="#323232" font-weight="700" align="middle" lineHeight="125%" anchor="middle" family="微软雅黑" size="13px" weight="700" font-style="" opacity="1" y="16.875" transform="rotate(0)"><tspan id="SvgjsTspan1024" dy="16" x="62"><tspan id="SvgjsTspan1025" style="text-decoration:;">集群代理</tspan></tspan><tspan id="SvgjsTspan1026" dy="16" x="62"><tspan id="SvgjsTspan1027" style="text-decoration:;">ClusterDeviceOp</tspan></tspan><tspan id="SvgjsTspan1028" dy="16" x="62"><tspan id="SvgjsTspan1029" style="text-decoration:;">erationBroker</tspan></tspan></text></g></g><g id="SvgjsG1030" transform="translate(281,25)"><path id="SvgjsPath1031" d="M 0 4Q 0 0 4 0L 120 0Q 124 0 124 4L 124 83.5Q 124 87.5 120 87.5L 4 87.5Q 0 87.5 0 83.5Z" stroke="rgba(50,50,50,1)" stroke-width="1" fill-opacity="1" fill="#ffffff"></path><g id="SvgjsG1032"><text id="SvgjsText1033" font-family="微软雅黑" text-anchor="middle" font-size="13px" width="104px" fill="#323232" font-weight="700" align="middle" lineHeight="125%" anchor="middle" family="微软雅黑" size="13px" weight="700" font-style="" opacity="1" y="8.625" transform="rotate(0)"><tspan id="SvgjsTspan1034" dy="16" x="62"><tspan id="SvgjsTspan1035" style="text-decoration:;">获取设备会话</tspan></tspan><tspan id="SvgjsTspan1036" dy="16" x="62"><tspan id="SvgjsTspan1037" style="text-decoration:;">DeviceSessionM</tspan></tspan><tspan id="SvgjsTspan1038" dy="16" x="62"><tspan id="SvgjsTspan1039" style="text-decoration:;">anager</tspan></tspan><tspan id="SvgjsTspan1040" dy="16" x="62"><tspan id="SvgjsTspan1041" style="text-decoration:;">.getSession()</tspan></tspan></text></g></g><g id="SvgjsG1042" transform="translate(490.5,31.75)"><path id="SvgjsPath1043" d="M 0 4Q 0 0 4 0L 159 0Q 163 0 163 4L 163 70Q 163 74 159 74L 4 74Q 0 74 0 70Z" stroke="rgba(50,50,50,1)" stroke-width="1" fill-opacity="1" fill="#3399cc"></path><g id="SvgjsG1044"><text id="SvgjsText1045" font-family="微软雅黑" text-anchor="middle" font-size="13px" width="143px" fill="#ffffff" font-weight="700" align="middle" lineHeight="125%" anchor="middle" family="微软雅黑" size="13px" weight="700" font-style="" opacity="1" y="1.875" transform="rotate(0)"><tspan id="SvgjsTspan1046" dy="16" x="81.5"><tspan id="SvgjsTspan1047" style="text-decoration:;">根据会话的Transport</tspan></tspan><tspan id="SvgjsTspan1048" dy="16" x="81.5"><tspan id="SvgjsTspan1049" style="text-decoration:;">调用协议包中的</tspan></tspan><tspan id="SvgjsTspan1050" dy="16" x="81.5"><tspan id="SvgjsTspan1051" style="text-decoration:;">DeviceMessageCodec</tspan></tspan><tspan id="SvgjsTspan1052" dy="16" x="81.5"><tspan id="SvgjsTspan1053" style="text-decoration:;">.encode(...)</tspan></tspan></text></g></g><g id="SvgjsG1054" transform="translate(640,234.5)"><path id="SvgjsPath1055" d="M 0 4Q 0 0 4 0L 159 0Q 163 0 163 4L 163 70Q 163 74 159 74L 4 74Q 0 74 0 70Z" stroke="rgba(50,50,50,1)" stroke-width="1" fill-opacity="1" fill="#ffffff"></path><g id="SvgjsG1056"><text id="SvgjsText1057" font-family="微软雅黑" text-anchor="middle" font-size="13px" width="143px" fill="#323232" font-weight="700" align="middle" lineHeight="125%" anchor="middle" family="微软雅黑" size="13px" weight="700" font-style="" opacity="1" y="9.875" transform="rotate(0)"><tspan id="SvgjsTspan1058" dy="16" x="81.5"><tspan id="SvgjsTspan1059" style="text-decoration:;">发送encode的结果给设</tspan></tspan><tspan id="SvgjsTspan1060" dy="16" x="81.5"><tspan id="SvgjsTspan1061" style="text-decoration:;">备会话</tspan></tspan><tspan id="SvgjsTspan1062" dy="16" x="81.5"><tspan id="SvgjsTspan1063" style="text-decoration:;">DeviceSession.send</tspan></tspan></text></g></g><g id="SvgjsG1064"><path id="SvgjsPath1065" d="M150.5 264.5L199.5 264.5L199.5 68.75L279.2 68.75" stroke="#323232" stroke-width="1" fill="none" marker-end="url(#SvgjsMarker1066)"></path></g><g id="SvgjsG1068"><path id="SvgjsPath1069" d="M88 130.8L88 174.75L88 174.75L88 218.7" stroke="#323232" stroke-width="1" fill="none" marker-start="url(#SvgjsMarker1070)" marker-end="url(#SvgjsMarker1072)"></path></g><g id="SvgjsG1074"><path id="SvgjsPath1075" d="M343 113L343 129.25L343 129.25L343 144.2" stroke="#323232" stroke-width="1" fill="none" marker-end="url(#SvgjsMarker1076)"></path></g><g id="SvgjsG1078" transform="translate(283,146)"><path id="SvgjsPath1079" d="M 0 40L 60 0L 120 40L 60 80Z" stroke="rgba(50,50,50,1)" stroke-width="1" fill-opacity="1" fill="#ffffff"></path><g id="SvgjsG1080"><text id="SvgjsText1081" font-family="微软雅黑" text-anchor="middle" font-size="13px" width="100px" fill="#323232" font-weight="700" align="middle" lineHeight="125%" anchor="middle" family="微软雅黑" size="13px" weight="700" font-style="" opacity="1" y="29.775" transform="rotate(0)"><tspan id="SvgjsTspan1082" dy="16" x="60"><tspan id="SvgjsTspan1083" style="text-decoration:;">会话是否存在</tspan></tspan></text></g></g><g id="SvgjsG1084"><path id="SvgjsPath1085" d="M403.5 186L446.75 186L446.75 68.75L488.7 68.75" stroke="#323232" stroke-width="1" fill="none" marker-end="url(#SvgjsMarker1086)"></path><rect id="SvgjsRect1088" width="13" height="16" x="440.25" y="120.025" fill="#ffffff"></rect><text id="SvgjsText1089" font-family="微软雅黑" text-anchor="middle" font-size="13px" width="13px" fill="#388e3c" font-weight="700" align="top" lineHeight="16px" anchor="middle" family="微软雅黑" size="13px" weight="700" font-style="" opacity="1" y="117.4" transform="rotate(0)"><tspan id="SvgjsTspan1090" dy="16" x="446.75"><tspan id="SvgjsTspan1091" style="text-decoration:;">是</tspan></tspan></text></g><g id="SvgjsG1092"><path id="SvgjsPath1093" d="M721.5 309L721.5 343.5L721.5 343.5L721.5 376.7" stroke="#323232" stroke-width="1" fill="none" marker-end="url(#SvgjsMarker1094)"></path></g><g id="SvgjsG1096" transform="translate(671.5,378.5)"><path id="SvgjsPath1097" d="M 0 4Q 0 0 4 0L 96 0Q 100 0 100 4L 100 66Q 100 70 96 70L 4 70Q 0 70 0 66Z" stroke="rgba(50,50,50,1)" stroke-width="1" fill-opacity="1" fill="#ffffff"></path><g id="SvgjsG1098"><text id="SvgjsText1099" font-family="微软雅黑" text-anchor="middle" font-size="13px" width="80px" fill="#323232" font-weight="700" align="middle" lineHeight="125%" anchor="middle" family="微软雅黑" size="13px" weight="700" font-style="" opacity="1" y="24.375" transform="rotate(0)"><tspan id="SvgjsTspan1100" dy="16" x="50"><tspan id="SvgjsTspan1101" style="text-decoration:;">设备</tspan></tspan></text></g></g><g id="SvgjsG1102"><path id="SvgjsPath1103" d="M343 226.5L343 264.75L417 264.75L417 301.7" stroke="#323232" stroke-width="1" fill="none" marker-end="url(#SvgjsMarker1104)"></path><rect id="SvgjsRect1106" width="13" height="16" x="372.85" y="256.75" fill="#ffffff"></rect><text id="SvgjsText1107" font-family="微软雅黑" text-anchor="middle" font-size="13px" width="13px" fill="#d32f2f" font-weight="700" align="top" lineHeight="16px" anchor="middle" family="微软雅黑" size="13px" weight="700" font-style="" opacity="1" y="254.125" transform="rotate(0)"><tspan id="SvgjsTspan1108" dy="16" x="379.35"><tspan id="SvgjsTspan1109" style="text-decoration:;">否</tspan></tspan></text></g><g id="SvgjsG1110" transform="translate(357,303.5)"><path id="SvgjsPath1111" d="M 0 40L 60 0L 120 40L 60 80Z" stroke="rgba(50,50,50,1)" stroke-width="1" fill-opacity="1" fill="#ffffff"></path><g id="SvgjsG1112"><text id="SvgjsText1113" font-family="微软雅黑" text-anchor="middle" font-size="13px" width="100px" fill="#323232" font-weight="700" align="middle" lineHeight="125%" anchor="middle" family="微软雅黑" size="13px" weight="700" font-style="" opacity="1" y="29.775" transform="rotate(0)"><tspan id="SvgjsTspan1114" dy="16" x="60"><tspan id="SvgjsTspan1115" style="text-decoration:;">是否子设备</tspan></tspan></text></g></g><g id="SvgjsG1116"><path id="SvgjsPath1117" d="M417 384L417 406.75L417 406.75L417 428.2" stroke="#323232" stroke-width="1" fill="none" marker-end="url(#SvgjsMarker1118)"></path><rect id="SvgjsRect1120" width="13" height="16" x="410.5" y="398.09999999999997" fill="#ffffff"></rect><text id="SvgjsText1121" font-family="微软雅黑" text-anchor="middle" font-size="13px" width="13px" fill="#d32f2f" font-weight="700" align="top" lineHeight="16px" anchor="middle" family="微软雅黑" size="13px" weight="700" font-style="" opacity="1" y="395.47499999999997" transform="rotate(0)"><tspan id="SvgjsTspan1122" dy="16" x="417"><tspan id="SvgjsTspan1123" style="text-decoration:;">否</tspan></tspan></text></g><g id="SvgjsG1124" transform="translate(367,430)"><path id="SvgjsPath1125" d="M 0 4Q 0 0 4 0L 96 0Q 100 0 100 4L 100 66Q 100 70 96 70L 4 70Q 0 70 0 66Z" stroke="rgba(50,50,50,1)" stroke-width="1" fill-opacity="1" fill="#ffffff"></path><g id="SvgjsG1126"><text id="SvgjsText1127" font-family="微软雅黑" text-anchor="middle" font-size="13px" width="80px" fill="#323232" font-weight="700" align="middle" lineHeight="125%" anchor="middle" family="微软雅黑" size="13px" weight="700" font-style="" opacity="1" y="-0.125" transform="rotate(0)"><tspan id="SvgjsTspan1128" dy="16" x="50"><tspan id="SvgjsTspan1129" style="text-decoration:;">返回设备离线</tspan></tspan><tspan id="SvgjsTspan1130" dy="16" x="50"><tspan id="SvgjsTspan1131" style="text-decoration:;">错误</tspan></tspan><tspan id="SvgjsTspan1132" dy="16" x="50"><tspan id="SvgjsTspan1133" style="text-decoration:;">MessageHan</tspan></tspan><tspan id="SvgjsTspan1134" dy="16" x="50"><tspan id="SvgjsTspan1135" style="text-decoration:;">dler.reply</tspan></tspan></text></g></g><g id="SvgjsG1136"><path id="SvgjsPath1137" d="M366.5 465L88 465L88 310.3" stroke="#323232" stroke-width="1" fill="none" marker-end="url(#SvgjsMarker1138)"></path></g><g id="SvgjsG1140"><path id="SvgjsPath1141" d="M356.5 343.5L322.5 343.5L322.5 343.5L289.8 343.5" stroke="#323232" stroke-width="1" fill="none" marker-end="url(#SvgjsMarker1142)"></path><rect id="SvgjsRect1144" width="13" height="16" x="316.65" y="335.5" fill="#ffffff"></rect><text id="SvgjsText1145" font-family="微软雅黑" text-anchor="middle" font-size="13px" width="13px" fill="#388e3c" font-weight="700" align="top" lineHeight="16px" anchor="middle" family="微软雅黑" size="13px" weight="700" font-style="" opacity="1" y="332.875" transform="rotate(0)"><tspan id="SvgjsTspan1146" dy="16" x="323.15"><tspan id="SvgjsTspan1147" style="text-decoration:;">是</tspan></tspan></text></g><g id="SvgjsG1148" transform="translate(176,308.5)"><path id="SvgjsPath1149" d="M 0 4Q 0 0 4 0L 108 0Q 112 0 112 4L 112 66Q 112 70 108 70L 4 70Q 0 70 0 66Z" stroke="rgba(50,50,50,1)" stroke-width="1" fill-opacity="1" fill="#ffffff"></path><g id="SvgjsG1150"><text id="SvgjsText1151" font-family="微软雅黑" text-anchor="middle" font-size="13px" width="92px" fill="#323232" font-weight="700" align="middle" lineHeight="125%" anchor="middle" family="微软雅黑" size="13px" weight="700" font-style="" opacity="1" y="-0.125" transform="rotate(0)"><tspan id="SvgjsTspan1152" dy="16" x="56"><tspan id="SvgjsTspan1153" style="text-decoration:;">转为子设消息</tspan></tspan><tspan id="SvgjsTspan1154" dy="16" x="56"><tspan id="SvgjsTspan1155" style="text-decoration:;">尝试发送给网关</tspan></tspan><tspan id="SvgjsTspan1156" dy="16" x="56"><tspan id="SvgjsTspan1157" style="text-decoration:;">ChildDeviceM</tspan></tspan><tspan id="SvgjsTspan1158" dy="16" x="56"><tspan id="SvgjsTspan1159" style="text-decoration:;">essage</tspan></tspan></text></g></g><g id="SvgjsG1160"><path id="SvgjsPath1161" d="M232 308L232 84L279.2 84" stroke="#323232" stroke-width="1" fill="none" marker-end="url(#SvgjsMarker1162)"></path></g><g id="SvgjsG1164" transform="translate(521,153)"><path id="SvgjsPath1165" d="M 0 43.5L 51 0L 102 43.5L 51 87Z" stroke="rgba(50,50,50,1)" stroke-width="1" fill-opacity="1" fill="#3399cc"></path><g id="SvgjsG1166"><text id="SvgjsText1167" font-family="微软雅黑" text-anchor="middle" font-size="13px" width="82px" fill="#ffffff" font-weight="700" align="middle" lineHeight="125%" anchor="middle" family="微软雅黑" size="13px" weight="700" font-style="" opacity="1" y="24.810000000000002" transform="rotate(0)"><tspan id="SvgjsTspan1168" dy="16" x="51"><tspan id="SvgjsTspan1169" style="text-decoration:;">encode</tspan></tspan><tspan id="SvgjsTspan1170" dy="16" x="51"><tspan id="SvgjsTspan1171" style="text-decoration:;">结果是否为空</tspan></tspan></text></g></g><g id="SvgjsG1172"><path id="SvgjsPath1173" d="M623.5 196.5L721.5 196.5L721.5 232.7" stroke="#323232" stroke-width="1" fill="none" marker-end="url(#SvgjsMarker1174)"></path><rect id="SvgjsRect1176" width="13" height="16" x="684.1" y="188.5" fill="#ffffff"></rect><text id="SvgjsText1177" font-family="微软雅黑" text-anchor="middle" font-size="13px" width="13px" fill="#323232" font-weight="700" align="top" lineHeight="16px" anchor="middle" family="微软雅黑" size="13px" weight="700" font-style="" opacity="1" y="185.875" transform="rotate(0)"><tspan id="SvgjsTspan1178" dy="16" x="690.6"><tspan id="SvgjsTspan1179" style="text-decoration:;">否</tspan></tspan></text></g><g id="SvgjsG1180" transform="translate(512,277)"><path id="SvgjsPath1181" d="M 0 46.5L 60 0L 120 46.5L 60 93Z" stroke="rgba(50,50,50,1)" stroke-width="1" fill-opacity="1" fill="#3399cc"></path><g id="SvgjsG1182"><text id="SvgjsText1183" font-family="微软雅黑" text-anchor="middle" font-size="13px" width="100px" fill="#ffffff" font-weight="700" align="middle" lineHeight="125%" anchor="middle" family="微软雅黑" size="13px" weight="700" font-style="" opacity="1" y="27.84" transform="rotate(0)"><tspan id="SvgjsTspan1184" dy="16" x="60"><tspan id="SvgjsTspan1185" style="text-decoration:;">是否调用了</tspan></tspan><tspan id="SvgjsTspan1186" dy="16" x="60"><tspan id="SvgjsTspan1187" style="text-decoration:;">context.reply</tspan></tspan></text></g></g><g id="SvgjsG1188"><path id="SvgjsPath1189" d="M572 106.25L572 129.375L572 129.375L572 151.2" stroke="#323232" stroke-width="1" fill="none" marker-end="url(#SvgjsMarker1190)"></path></g><g id="SvgjsG1192"><path id="SvgjsPath1193" d="M572 240.5L572 258.5L572 258.5L572 275.2" stroke="#323232" stroke-width="1" fill="none" marker-end="url(#SvgjsMarker1194)"></path></g><g id="SvgjsG1196"><path id="SvgjsPath1197" d="M572 370.5L572 400L573.0000000000001 400L573.0000000000001 428.2" stroke="#323232" stroke-width="1" fill="none" marker-end="url(#SvgjsMarker1198)"></path><rect id="SvgjsRect1200" width="13" height="16" x="565.5" y="391.85" fill="#ffffff"></rect><text id="SvgjsText1201" font-family="微软雅黑" text-anchor="middle" font-size="13px" width="13px" fill="#323232" font-weight="700" align="top" lineHeight="16px" anchor="middle" family="微软雅黑" size="13px" weight="700" font-style="" opacity="1" y="389.225" transform="rotate(0)"><tspan id="SvgjsTspan1202" dy="16" x="572"><tspan id="SvgjsTspan1203" style="text-decoration:;">否</tspan></tspan></text></g><g id="SvgjsG1204" transform="translate(523.0000000000001,430)"><path id="SvgjsPath1205" d="M 0 4Q 0 0 4 0L 96 0Q 100 0 100 4L 100 66Q 100 70 96 70L 4 70Q 0 70 0 66Z" stroke="rgba(50,50,50,1)" stroke-width="1" fill-opacity="1" fill="#ffffff"></path><g id="SvgjsG1206"><text id="SvgjsText1207" font-family="微软雅黑" text-anchor="middle" font-size="13px" width="80px" fill="#323232" font-weight="700" align="middle" lineHeight="125%" anchor="middle" family="微软雅黑" size="13px" weight="700" font-style="" opacity="1" y="-0.125" transform="rotate(0)"><tspan id="SvgjsTspan1208" dy="16" x="50"><tspan id="SvgjsTspan1209" style="text-decoration:;">返回不支持的</tspan></tspan><tspan id="SvgjsTspan1210" dy="16" x="50"><tspan id="SvgjsTspan1211" style="text-decoration:;">消息错误</tspan></tspan><tspan id="SvgjsTspan1212" dy="16" x="50"><tspan id="SvgjsTspan1213" style="text-decoration:;">MessageHan</tspan></tspan><tspan id="SvgjsTspan1214" dy="16" x="50"><tspan id="SvgjsTspan1215" style="text-decoration:;">dler.reply</tspan></tspan></text></g></g><g id="SvgjsG1216"><path id="SvgjsPath1217" d="M573.0000000000001 500.5L573.0000000000001 530L64.18181818181817 530L64.18181818181817 309.43636363636364" stroke="#323232" stroke-width="1" fill="none" marker-end="url(#SvgjsMarker1218)"></path></g></svg>