<svg id="SvgjsSvg1006" width="410.375" height="534.5" xmlns="http://www.w3.org/2000/svg" version="1.1" xmlns:xlink="http://www.w3.org/1999/xlink" xmlns:svgjs="http://svgjs.com/svgjs"><defs id="SvgjsDefs1007"><marker id="SvgjsMarker1024" markerWidth="12" markerHeight="8" refX="9" refY="4" viewBox="0 0 12 8" orient="auto" markerUnits="userSpaceOnUse" stroke-dasharray="0,0"><path id="SvgjsPath1025" d="M0,0 L12,4 L0,8 L0,0" fill="#323232" stroke="#323232" stroke-width="1"></path></marker><marker id="SvgjsMarker1042" markerWidth="12" markerHeight="8" refX="9" refY="4" viewBox="0 0 12 8" orient="auto" markerUnits="userSpaceOnUse" stroke-dasharray="0,0"><path id="SvgjsPath1043" d="M0,0 L12,4 L0,8 L0,0" fill="#323232" stroke="#323232" stroke-width="1"></path></marker><marker id="SvgjsMarker1068" markerWidth="12" markerHeight="8" refX="9" refY="4" viewBox="0 0 12 8" orient="auto" markerUnits="userSpaceOnUse" stroke-dasharray="0,0"><path id="SvgjsPath1069" d="M0,0 L12,4 L0,8 L0,0" fill="#323232" stroke="#323232" stroke-width="1"></path></marker><marker id="SvgjsMarker1080" markerWidth="12" markerHeight="8" refX="9" refY="4" viewBox="0 0 12 8" orient="auto" markerUnits="userSpaceOnUse" stroke-dasharray="0,0"><path id="SvgjsPath1081" d="M0,0 L12,4 L0,8 L0,0" fill="#323232" stroke="#323232" stroke-width="1"></path></marker><marker id="SvgjsMarker1084" markerWidth="12" markerHeight="8" refX="9" refY="4" viewBox="0 0 12 8" orient="auto" markerUnits="userSpaceOnUse" stroke-dasharray="0,0"><path id="SvgjsPath1085" d="M0,0 L12,4 L0,8 L0,0" fill="#323232" stroke="#323232" stroke-width="1"></path></marker><marker id="SvgjsMarker1096" markerWidth="12" markerHeight="8" refX="9" refY="4" viewBox="0 0 12 8" orient="auto" markerUnits="userSpaceOnUse" stroke-dasharray="0,0"><path id="SvgjsPath1097" d="M0,0 L12,4 L0,8 L0,0" fill="#323232" stroke="#323232" stroke-width="1"></path></marker></defs><g id="SvgjsG1008" transform="translate(78.625,25)"><path id="SvgjsPath1009" d="M 0 35C 0 -11.666666666666666 70 -11.666666666666666 70 35C 70 81.66666666666667 0 81.66666666666667 0 35Z" stroke="rgba(50,50,50,1)" stroke-width="1" fill-opacity="1" fill="#ffffff"></path><g id="SvgjsG1010"><text id="SvgjsText1011" font-family="微软雅黑" text-anchor="middle" font-size="13px" width="50px" fill="#323232" font-weight="700" align="middle" lineHeight="125%" anchor="middle" family="微软雅黑" size="13px" weight="700" font-style="" opacity="1" y="24.375" transform="rotate(0)"><tspan id="SvgjsTspan1012" dy="16" x="35"><tspan id="SvgjsTspan1013" style="text-decoration:;">设备</tspan></tspan></text></g></g><g id="SvgjsG1014" transform="translate(53.125,153.5)"><path id="SvgjsPath1015" d="M 0 4Q 0 0 4 0L 117 0Q 121 0 121 4L 121 71Q 121 75 117 75L 4 75Q 0 75 0 71Z" stroke="rgba(50,50,50,1)" stroke-width="1" fill-opacity="1" fill="#ffffff"></path><g id="SvgjsG1016"><text id="SvgjsText1017" font-family="微软雅黑" text-anchor="middle" font-size="13px" width="101px" fill="#323232" font-weight="700" align="middle" lineHeight="125%" anchor="middle" family="微软雅黑" size="13px" weight="700" font-style="" opacity="1" y="18.375" transform="rotate(0)"><tspan id="SvgjsTspan1018" dy="16" x="60.5"><tspan id="SvgjsTspan1019" style="text-decoration:;">设备接入网关</tspan></tspan><tspan id="SvgjsTspan1020" dy="16" x="60.5"><tspan id="SvgjsTspan1021" style="text-decoration:;">DeviceGateway</tspan></tspan></text></g></g><g id="SvgjsG1022"><path id="SvgjsPath1023" d="M113.625 95.5L113.625 124.25L113.625 124.25L113.625 151.7" stroke="#323232" stroke-width="1" fill="none" marker-end="url(#SvgjsMarker1024)"></path><rect id="SvgjsRect1026" width="88" height="16" x="69.625" y="115.6" fill="#ffffff"></rect><text id="SvgjsText1027" font-family="微软雅黑" text-anchor="middle" font-size="13px" width="88px" fill="#323232" font-weight="700" align="top" lineHeight="16px" anchor="middle" family="微软雅黑" size="13px" weight="700" font-style="" opacity="1" y="112.975" transform="rotate(0)"><tspan id="SvgjsTspan1028" dy="16" x="113.625"><tspan id="SvgjsTspan1029" style="text-decoration:;">TCP、MQTT...</tspan></tspan></text></g><g id="SvgjsG1030" transform="translate(226.375,155)"><path id="SvgjsPath1031" d="M 0 4Q 0 0 4 0L 154.5 0Q 158.5 0 158.5 4L 158.5 68Q 158.5 72 154.5 72L 4 72Q 0 72 0 68Z" stroke="rgba(50,50,50,1)" stroke-width="1" fill-opacity="1" fill="#3399cc"></path><g id="SvgjsG1032"><text id="SvgjsText1033" font-family="微软雅黑" text-anchor="middle" font-size="13px" width="139px" fill="#ffffff" font-weight="700" align="middle" lineHeight="125%" anchor="middle" family="微软雅黑" size="13px" weight="700" font-style="" opacity="1" y="8.875" transform="rotate(0)"><tspan id="SvgjsTspan1034" dy="16" x="79.5"><tspan id="SvgjsTspan1035" style="text-decoration:;">协议包解码</tspan></tspan><tspan id="SvgjsTspan1036" dy="16" x="79.5"><tspan id="SvgjsTspan1037" style="text-decoration:;">DeviceMessageCodec</tspan></tspan><tspan id="SvgjsTspan1038" dy="16" x="79.5"><tspan id="SvgjsTspan1039" style="text-decoration:;">.decode</tspan></tspan></text></g></g><g id="SvgjsG1040"><path id="SvgjsPath1041" d="M305.625 227.5L305.625 252.60000000000002L305.625 252.60000000000002L305.625 276.4" stroke="#323232" stroke-width="1" fill="none" marker-end="url(#SvgjsMarker1042)"></path></g><g id="SvgjsG1044" transform="translate(226.375,276)"><path id="SvgjsPath1045" d="M 0 4Q 0 0 4 0L 154.5 0Q 158.5 0 158.5 4L 158.5 73Q 158.5 77 154.5 77L 4 77Q 0 77 0 73Z" stroke="rgba(50,50,50,1)" stroke-width="1" fill-opacity="1" fill="#ffffff"></path><g id="SvgjsG1046"><text id="SvgjsText1047" font-family="微软雅黑" text-anchor="middle" font-size="13px" width="139px" fill="#323232" font-weight="700" align="middle" lineHeight="125%" anchor="middle" family="微软雅黑" size="13px" weight="700" font-style="" opacity="1" y="3.375" transform="rotate(0)"><tspan id="SvgjsTspan1048" dy="16" x="79.5"><tspan id="SvgjsTspan1049" style="text-decoration:;">处理会话</tspan></tspan><tspan id="SvgjsTspan1050" dy="16" x="79.5"><tspan id="SvgjsTspan1051" style="text-decoration:;">DeviceGatewayHelper</tspan></tspan><tspan id="SvgjsTspan1052" dy="16" x="79.5"><tspan id="SvgjsTspan1053" style="text-decoration:;">.handleDeviceMessag</tspan></tspan><tspan id="SvgjsTspan1054" dy="16" x="79.5"><tspan id="SvgjsTspan1055" style="text-decoration:;">e</tspan></tspan></text></g></g><g id="SvgjsG1056" transform="translate(34.375,273.5)"><path id="SvgjsPath1057" d="M 0 4Q 0 0 4 0L 154.5 0Q 158.5 0 158.5 4L 158.5 78Q 158.5 82 154.5 82L 4 82Q 0 82 0 78Z" stroke="rgba(50,50,50,1)" stroke-width="1" fill-opacity="1" fill="#ffffff"></path><g id="SvgjsG1058"><text id="SvgjsText1059" font-family="微软雅黑" text-anchor="middle" font-size="13px" width="139px" fill="#323232" font-weight="700" align="middle" lineHeight="125%" anchor="middle" family="微软雅黑" size="13px" weight="700" font-style="" opacity="1" y="13.875" transform="rotate(0)"><tspan id="SvgjsTspan1060" dy="16" x="79.5"><tspan id="SvgjsTspan1061" style="text-decoration:;">处理消息</tspan></tspan><tspan id="SvgjsTspan1062" dy="16" x="79.5"><tspan id="SvgjsTspan1063" style="text-decoration:;">DeviceMessageConne</tspan></tspan><tspan id="SvgjsTspan1064" dy="16" x="79.5"><tspan id="SvgjsTspan1065" style="text-decoration:;">ctor.handleMessage</tspan></tspan></text></g></g><g id="SvgjsG1066"><path id="SvgjsPath1067" d="M151.625 356L151.625 396L303.25 396L303.25 434.7" stroke="#323232" stroke-width="1" fill="none" marker-end="url(#SvgjsMarker1068)"></path></g><g id="SvgjsG1070" transform="translate(221.625,436.5)"><path id="SvgjsPath1071" d="M 0 4Q 0 0 4 0L 159.25 0Q 163.25 0 163.25 4L 163.25 69Q 163.25 73 159.25 73L 4 73Q 0 73 0 69Z" stroke="rgba(50,50,50,1)" stroke-width="1" fill-opacity="1" fill="#ffffff"></path><g id="SvgjsG1072"><text id="SvgjsText1073" font-family="微软雅黑" text-anchor="middle" font-size="13px" width="144px" fill="#323232" font-weight="700" align="middle" lineHeight="125%" anchor="middle" family="微软雅黑" size="13px" weight="700" font-style="" opacity="1" y="17.375" transform="rotate(0)"><tspan id="SvgjsTspan1074" dy="16" x="82"><tspan id="SvgjsTspan1075" style="text-decoration:;">推送到事件总线</tspan></tspan><tspan id="SvgjsTspan1076" dy="16" x="82"><tspan id="SvgjsTspan1077" style="text-decoration:;">EventBus</tspan></tspan></text></g></g><g id="SvgjsG1078"><path id="SvgjsPath1079" d="M174.625 191L200.25 191L200.25 191L224.575 191" stroke="#323232" stroke-width="1" fill="none" marker-end="url(#SvgjsMarker1080)"></path></g><g id="SvgjsG1082"><path id="SvgjsPath1083" d="M225.875 314.5L209.625 314.5L209.625 314.5L194.675 314.5" stroke="#323232" stroke-width="1" fill="none" marker-end="url(#SvgjsMarker1084)"></path></g><g id="SvgjsG1086" transform="translate(25,436.5)"><path id="SvgjsPath1087" d="M 0 4Q 0 0 4 0L 159.25 0Q 163.25 0 163.25 4L 163.25 69Q 163.25 73 159.25 73L 4 73Q 0 73 0 69Z" stroke="rgba(50,50,50,1)" stroke-width="1" fill-opacity="1" fill="#ffffff"></path><g id="SvgjsG1088"><text id="SvgjsText1089" font-family="微软雅黑" text-anchor="middle" font-size="13px" width="144px" fill="#323232" font-weight="700" align="middle" lineHeight="125%" anchor="middle" family="微软雅黑" size="13px" weight="700" font-style="" opacity="1" y="17.375" transform="rotate(0)"><tspan id="SvgjsTspan1090" dy="16" x="82"><tspan id="SvgjsTspan1091" style="text-decoration:;">回复平台下发的指令结果</tspan></tspan><tspan id="SvgjsTspan1092" dy="16" x="82"><tspan id="SvgjsTspan1093" style="text-decoration:;">MessageHandler.reply</tspan></tspan></text></g></g><g id="SvgjsG1094"><path id="SvgjsPath1095" d="M85.625 355L85.625 395.5L106.625 395.5L106.625 434.7" stroke="#323232" stroke-width="1" fill="none" marker-end="url(#SvgjsMarker1096)"></path></g></svg>